<svg xmlns="http://www.w3.org/2000/svg" width="40" height="40" fill="none"><path fill="#627EEA" d="M20 40c11.046 0 20-8.954 20-20S31.046 0 20 0 0 8.954 0 20s8.954 20 20 20Z"/><path fill="#fff" fill-opacity=".602" d="M20.622 5v11.087l9.37 4.188L20.623 5Z"/><path fill="#fff" d="M20.622 5 11.25 20.275l9.372-4.188V5Z"/><path fill="#fff" fill-opacity=".602" d="M20.622 27.46v7.534l9.377-12.974-9.377 5.44Z"/><path fill="#fff" d="M20.622 34.994v-7.535L11.25 22.02l9.372 12.974Z"/><path fill="#fff" fill-opacity=".2" d="m20.622 25.716 9.37-5.441-9.37-4.185v9.626Z"/><path fill="#fff" fill-opacity=".602" d="m11.25 20.275 9.372 5.441V16.09l-9.372 4.185Z"/></svg>