<svg xmlns="http://www.w3.org/2000/svg" width="32" height="32" fill="none"><path fill="#3559FB" d="M1.333 12.215c0-3.81 0-5.714.73-7.168a6.755 6.755 0 0 1 2.931-2.972c1.435-.742 3.313-.742 7.07-.742h7.871c3.756 0 5.634 0 7.069.742a6.754 6.754 0 0 1 2.93 2.972c.732 1.454.732 3.359.732 7.168v7.57c0 3.809 0 5.713-.731 7.168a6.754 6.754 0 0 1-2.931 2.972c-1.435.742-3.313.742-7.069.742h-7.872c-3.756 0-5.634 0-7.069-.742a6.754 6.754 0 0 1-2.93-2.972c-.731-1.455-.731-3.359-.731-7.168v-7.57Z"/><path fill="#fff" fill-rule="evenodd" d="M15.39 5.772c-2.646.261-4.67 1.176-6.424 2.902-3.284 3.231-4.01 8.322-1.767 12.384a10.133 10.133 0 0 0 7.208 5.12c.778.132 2.332.147 3.084.03a10.14 10.14 0 0 0 6.5-3.82c1.925-2.482 2.6-5.576 1.901-8.711-.886-3.977-4.223-7.142-8.197-7.775-.662-.105-1.87-.173-2.305-.13Zm3.963 7.363v5.798l-.46.467h-5.718l-.46-.467v-5.798l.46-.467h5.718l.46.467Z" clip-rule="evenodd"/></svg>