<svg width="16" height="18" viewBox="0 0 16 18" fill="none" xmlns="http://www.w3.org/2000/svg">
<path fill-rule="evenodd" clip-rule="evenodd" d="M0.5 8.16669C0.5 4.02455 3.85787 0.666687 8 0.666687C12.1422 0.666687 15.5 4.02455 15.5 8.16669C15.5 10.6887 13.9918 12.8265 12.2541 14.3325L9.38625 16.818C8.59067 17.5075 7.40933 17.5075 6.61375 16.818L3.74587 14.3325C2.00814 12.8265 0.5 10.6887 0.5 8.16669ZM8 9.83335C8.9205 9.83335 9.66667 9.08719 9.66667 8.16669C9.66667 7.24621 8.9205 6.50002 8 6.50002C7.0795 6.50002 6.33333 7.24621 6.33333 8.16669C6.33333 9.08719 7.0795 9.83335 8 9.83335Z" fill="#30B38C"/>
</svg>
