<svg width="32" height="32" viewBox="0 0 32 32" fill="none" xmlns="http://www.w3.org/2000/svg">
<g clip-path="url(#clip0_2520_34424)">
<path d="M28.9916 11.0646C28.3599 9.54455 27.0784 7.90331 26.0749 7.38449C26.7905 8.77022 27.2872 10.2584 27.5473 11.7961L27.5499 11.8205C25.9061 7.72399 23.1195 6.06962 20.8424 2.47202C20.7272 2.29008 20.6121 2.10776 20.4999 1.91531C20.4358 1.80539 20.3844 1.70636 20.3397 1.6152C20.2453 1.43234 20.1725 1.23908 20.1229 1.03936C20.123 1.03014 20.1196 1.02122 20.1135 1.0143C20.1074 1.00738 20.099 1.00295 20.0899 1.00184C20.0809 0.999385 20.0715 0.999385 20.0625 1.00184C20.0606 1.00184 20.0576 1.00522 20.0554 1.00597C20.0531 1.00672 20.0482 1.0101 20.0449 1.0116L20.0505 1.00184C16.3985 3.14015 15.1586 7.09788 15.0461 9.07862C13.5872 9.17865 12.1923 9.71609 11.0434 10.6208C10.9235 10.5193 10.7983 10.4244 10.6682 10.3365C10.337 9.17688 10.3228 7.94966 10.6273 6.78276C9.28615 7.43243 8.09444 8.35345 7.12764 9.48752H7.12089C6.54467 8.75713 6.58519 6.34872 6.6182 5.84566C6.44773 5.91417 6.28501 6.00056 6.13277 6.10338C5.62409 6.46642 5.14855 6.87379 4.71173 7.32071C4.21395 7.82539 3.75932 8.37088 3.3526 8.95145V8.9537V8.95107C2.41795 10.2759 1.75495 11.7728 1.40187 13.3552L1.38236 13.4513C1.35497 13.5792 1.25631 14.2199 1.23943 14.3591C1.23943 14.37 1.23718 14.3801 1.23606 14.391C1.10879 15.0525 1.02992 15.7224 1.00009 16.3954V16.4704C1.00652 20.1087 2.3767 23.6124 4.84017 26.2899C7.30363 28.9673 10.6813 30.6239 14.3065 30.9327C17.9317 31.2415 21.541 30.18 24.4218 27.9577C27.3025 25.7354 29.2455 22.5139 29.8672 18.9291C29.8916 18.7415 29.9114 18.5558 29.9332 18.3664C30.2327 15.8911 29.9085 13.3803 28.9901 11.0624L28.9916 11.0646ZM12.2341 22.4464C12.302 22.479 12.3657 22.5143 12.4355 22.5454L12.4456 22.5518C12.3751 22.518 12.3046 22.4829 12.2341 22.4464ZM27.5503 11.8247V11.8108L27.5529 11.8262L27.5503 11.8247Z" fill="url(#paint0_linear_2520_34424)"/>
<path d="M28.9906 11.0649C28.3588 9.54483 27.0774 7.90359 26.0739 7.38477C26.7894 8.7705 27.2861 10.2587 27.5463 11.7964V11.8103L27.5489 11.8257C28.6698 15.0328 28.5077 18.549 27.0965 21.6394C25.4301 25.2148 21.3981 28.8796 15.0845 28.6995C8.26442 28.5063 2.25467 23.4438 1.133 16.8151C0.928548 15.7695 1.133 15.2395 1.23579 14.3898C1.09558 15.0498 1.01734 15.7214 1.00208 16.396V16.471C1.0085 20.1094 2.37869 23.6131 4.84215 26.2905C7.30561 28.968 10.6833 30.6246 14.3085 30.9334C17.9337 31.2421 21.543 30.1806 24.4237 27.9583C27.3045 25.7361 29.2475 22.5145 29.8691 18.9297C29.8935 18.7421 29.9134 18.5565 29.9352 18.367C30.2347 15.8918 29.9105 13.381 28.9921 11.063L28.9906 11.0649Z" fill="url(#paint1_radial_2520_34424)"/>
<path d="M28.9906 11.0649C28.3588 9.54483 27.0774 7.90359 26.0739 7.38477C26.7894 8.7705 27.2861 10.2587 27.5463 11.7964V11.8103L27.5489 11.8257C28.6698 15.0328 28.5077 18.549 27.0965 21.6394C25.4301 25.2148 21.3981 28.8796 15.0845 28.6995C8.26442 28.5063 2.25467 23.4438 1.133 16.8151C0.928548 15.7695 1.133 15.2395 1.23579 14.3898C1.09558 15.0498 1.01734 15.7214 1.00208 16.396V16.471C1.0085 20.1094 2.37869 23.6131 4.84215 26.2905C7.30561 28.968 10.6833 30.6246 14.3085 30.9334C17.9337 31.2421 21.543 30.1806 24.4237 27.9583C27.3045 25.7361 29.2475 22.5145 29.8691 18.9297C29.8935 18.7421 29.9134 18.5565 29.9352 18.367C30.2347 15.8918 29.9105 13.381 28.9921 11.063L28.9906 11.0649Z" fill="url(#paint2_radial_2520_34424)"/>
<path d="M21.9243 12.7719C21.9558 12.794 21.9851 12.8162 22.0147 12.8383C21.6495 12.1907 21.1949 11.5978 20.6642 11.077C16.1438 6.55658 19.4799 1.27835 20.0422 1.00825L20.0479 1C16.3959 3.1383 15.156 7.09604 15.0435 9.07678C15.2131 9.06515 15.3811 9.05089 15.5544 9.05089C16.8501 9.0534 18.122 9.39894 19.2409 10.0524C20.3597 10.7058 21.2856 11.6439 21.9243 12.7712V12.7719Z" fill="url(#paint3_radial_2520_34424)"/>
<path d="M15.5608 13.6757C15.5368 14.0373 14.2591 15.2846 13.8123 15.2846C9.67822 15.2846 9.00671 17.7857 9.00671 17.7857C9.18978 19.8917 10.6573 21.6271 12.4314 22.5425C12.5124 22.5845 12.5946 22.6224 12.6767 22.6595C12.819 22.7226 12.9613 22.7808 13.1036 22.8343C13.7125 23.0498 14.3502 23.1728 14.9955 23.1994C22.2432 23.5392 23.6462 14.5336 18.4164 11.9189C19.65 11.7584 20.8994 12.0617 21.9221 12.7701C21.2833 11.6428 20.3574 10.7047 19.2386 10.0513C18.1198 9.39785 16.8478 9.05231 15.5522 9.0498C15.3796 9.0498 15.2108 9.06406 15.0412 9.07569C13.5823 9.17571 12.1874 9.71315 11.0385 10.6179C11.2602 10.8055 11.5104 11.0561 12.0375 11.5756C13.0241 12.5476 15.5544 13.5545 15.56 13.6727L15.5608 13.6757Z" fill="url(#paint4_radial_2520_34424)"/>
<path d="M15.5608 13.6757C15.5368 14.0373 14.2591 15.2846 13.8123 15.2846C9.67822 15.2846 9.00671 17.7857 9.00671 17.7857C9.18978 19.8917 10.6573 21.6271 12.4314 22.5425C12.5124 22.5845 12.5946 22.6224 12.6767 22.6595C12.819 22.7226 12.9613 22.7808 13.1036 22.8343C13.7125 23.0498 14.3502 23.1728 14.9955 23.1994C22.2432 23.5392 23.6462 14.5336 18.4164 11.9189C19.65 11.7584 20.8994 12.0617 21.9221 12.7701C21.2833 11.6428 20.3574 10.7047 19.2386 10.0513C18.1198 9.39785 16.8478 9.05231 15.5522 9.0498C15.3796 9.0498 15.2108 9.06406 15.0412 9.07569C13.5823 9.17571 12.1874 9.71315 11.0385 10.6179C11.2602 10.8055 11.5104 11.0561 12.0375 11.5756C13.0241 12.5476 15.5544 13.5545 15.56 13.6727L15.5608 13.6757Z" fill="url(#paint5_radial_2520_34424)"/>
<path d="M10.3628 10.1387C10.4806 10.2137 10.5778 10.279 10.6629 10.3379C10.3317 9.1783 10.3175 7.95108 10.622 6.78418C9.28085 7.43385 8.08915 8.35487 7.12234 9.48894C7.19325 9.48707 9.30229 9.44918 10.3628 10.1387Z" fill="url(#paint6_radial_2520_34424)"/>
<path d="M1.1309 16.8158C2.25294 23.4445 8.26232 28.5089 15.0824 28.7003C21.396 28.8788 25.4288 25.2137 27.0944 21.6401C28.5056 18.5497 28.6677 15.0335 27.5468 11.8264V11.8125C27.5468 11.8017 27.5446 11.7953 27.5468 11.7987L27.5494 11.8231C28.0652 15.1907 26.3524 18.4518 23.6742 20.6614L23.666 20.6801C18.4478 24.9305 13.4546 23.2438 12.4455 22.5558C12.375 22.5221 12.3045 22.4869 12.2339 22.4504C9.19192 20.9964 7.93482 18.2263 8.20493 15.8479C7.48282 15.8586 6.77312 15.6596 6.16181 15.2751C5.55051 14.8906 5.06383 14.337 4.76076 13.6815C5.55936 13.1923 6.46992 12.9157 7.4057 12.8782C8.34147 12.8406 9.27127 13.0433 10.1065 13.4669C11.8281 14.2484 13.7872 14.3254 15.5648 13.6815C15.5592 13.5633 13.0289 12.5561 12.0422 11.5845C11.5152 11.0649 11.2649 10.8147 11.0432 10.6267C10.9234 10.5252 10.7982 10.4303 10.6681 10.3424C10.5818 10.2835 10.4847 10.2197 10.368 10.1432C9.30746 9.45366 7.19842 9.49155 7.12865 9.49343H7.12189C6.54568 8.76303 6.58619 6.35463 6.61921 5.85156C6.44874 5.92007 6.28602 6.00646 6.13377 6.10928C5.62509 6.47232 5.14956 6.87969 4.71274 7.32662C4.21318 7.82988 3.75666 8.37411 3.34798 8.9536V8.95585V8.95323C2.41333 10.2781 1.75033 11.7749 1.39725 13.3574C1.39012 13.387 0.873552 15.6454 1.12827 16.8165L1.1309 16.8158Z" fill="url(#paint7_radial_2520_34424)"/>
<path d="M20.6642 11.0762C21.1949 11.5975 21.6496 12.1911 22.0147 12.8393C22.0946 12.8997 22.1692 12.9597 22.2326 13.0179C25.529 16.0565 23.8018 20.3519 23.6732 20.6558C26.3509 18.4496 28.0623 15.1862 27.5484 11.8174C25.9037 7.71715 23.1142 6.06278 20.8408 2.46518C20.7257 2.28324 20.6105 2.10092 20.4983 1.90848C20.4342 1.79856 20.3828 1.69952 20.3382 1.60836C20.2437 1.4255 20.171 1.23225 20.1213 1.03252C20.1214 1.02331 20.1181 1.01439 20.112 1.00747C20.1059 1.00055 20.0975 0.996113 20.0883 0.995008C20.0793 0.99255 20.0699 0.99255 20.0609 0.995008C20.0591 0.995008 20.056 0.998384 20.0538 0.999134C20.0515 0.999885 20.0467 1.00326 20.0433 1.00476C19.481 1.27149 16.1456 6.55309 20.666 11.0698L20.6642 11.0762Z" fill="url(#paint8_radial_2520_34424)"/>
<path d="M22.2307 13.02C22.1673 12.9618 22.0926 12.9018 22.0127 12.8414C21.9831 12.8193 21.9538 12.7971 21.9223 12.775C20.8996 12.0666 19.6503 11.7633 18.4166 11.9238C23.6461 14.5385 22.243 23.5419 14.9957 23.2043C14.3504 23.1778 13.7127 23.0547 13.1039 22.8393C12.9616 22.786 12.8193 22.7277 12.677 22.6645C12.5948 22.6269 12.5126 22.5894 12.4316 22.5474L12.4417 22.5538C13.4524 23.2437 18.444 24.9292 23.6622 20.6781L23.6705 20.6593C23.8006 20.3555 25.5278 16.0601 22.2299 13.0215L22.2307 13.02Z" fill="url(#paint9_radial_2520_34424)"/>
<path d="M9.00888 17.784C9.00888 17.784 9.68001 15.2829 13.8144 15.2829C14.2612 15.2829 15.5401 14.0356 15.563 13.6739C13.7853 14.3178 11.8263 14.2408 10.1047 13.4594C9.26943 13.0357 8.33962 12.8331 7.40385 12.8706C6.46808 12.9082 5.55751 13.1847 4.75891 13.6739C5.06199 14.3295 5.54866 14.883 6.15997 15.2675C6.77127 15.6521 7.48097 15.851 8.20308 15.8404C7.93373 18.2177 9.19045 20.9873 12.2321 22.4429C12.3 22.4755 12.3638 22.5108 12.4335 22.5419C10.658 21.6247 9.19195 19.89 9.00888 17.7851V17.784Z" fill="url(#paint10_radial_2520_34424)"/>
<path d="M28.9908 11.0646C28.3591 9.54455 27.0776 7.90331 26.0741 7.38449C26.7897 8.77022 27.2864 10.2584 27.5465 11.7961L27.5492 11.8205C25.9053 7.72399 23.1188 6.06962 20.8417 2.47202C20.7265 2.29008 20.6113 2.10776 20.4992 1.91531C20.435 1.80539 20.3836 1.70636 20.339 1.6152C20.2445 1.43234 20.1718 1.23908 20.1221 1.03936C20.1222 1.03014 20.1189 1.02122 20.1128 1.0143C20.1067 1.00738 20.0983 1.00295 20.0891 1.00184C20.0802 0.999385 20.0707 0.999385 20.0617 1.00184C20.0599 1.00184 20.0569 1.00522 20.0546 1.00597C20.0524 1.00672 20.0475 1.0101 20.0441 1.0116L20.0497 1.00184C16.3977 3.14015 15.1579 7.09788 15.0454 9.07862C15.2149 9.06699 15.383 9.05274 15.5563 9.05274C16.852 9.05524 18.1239 9.40078 19.2427 10.0542C20.3616 10.7077 21.2874 11.6457 21.9262 12.773C20.9035 12.0646 19.6542 11.7613 18.4205 11.9218C23.65 14.5365 22.2469 23.5399 14.9996 23.2023C14.3543 23.1758 13.7166 23.0527 13.1078 22.8373C12.9655 22.784 12.8231 22.7257 12.6808 22.6625C12.5987 22.625 12.5165 22.5874 12.4355 22.5454L12.4456 22.5518C12.3751 22.518 12.3046 22.4829 12.2341 22.4464C12.302 22.479 12.3657 22.5143 12.4355 22.5454C10.66 21.6278 9.19391 19.8932 9.01085 17.7886C9.01085 17.7886 9.68197 15.2876 13.8164 15.2876C14.2632 15.2876 15.542 14.0402 15.5649 13.6786C15.5593 13.5604 13.029 12.5532 12.0424 11.5816C11.5153 11.062 11.2651 10.8118 11.0434 10.6238C10.9235 10.5223 10.7983 10.4274 10.6682 10.3395C10.337 9.17988 10.3228 7.95266 10.6273 6.78576C9.28615 7.43543 8.09444 8.35645 7.12764 9.49053H7.12089C6.54467 8.76013 6.58519 6.35172 6.6182 5.84866C6.44773 5.91717 6.28501 6.00356 6.13277 6.10638C5.62409 6.46942 5.14855 6.87679 4.71173 7.32371C4.21395 7.82839 3.75932 8.37388 3.3526 8.95445V8.9567V8.95408C2.41795 10.2789 1.75495 11.7758 1.40187 13.3582L1.38236 13.4543C1.35497 13.5822 1.2323 14.2319 1.21467 14.3715C1.10247 15.0422 1.03081 15.719 1.00009 16.3984V16.4734C1.00652 20.1117 2.3767 23.6154 4.84017 26.2929C7.30363 28.9703 10.6813 30.6269 14.3065 30.9357C17.9317 31.2445 21.541 30.183 24.4218 27.9607C27.3025 25.7384 29.2455 22.5169 29.8672 18.9321C29.8916 18.7445 29.9114 18.5588 29.9332 18.3694C30.2327 15.8941 29.9085 13.3833 28.9901 11.0654L28.9908 11.0646ZM27.5484 11.8115L27.551 11.8269L27.5484 11.8115Z" fill="url(#paint11_linear_2520_34424)"/>
</g>
<defs>
<linearGradient id="paint0_linear_2520_34424" x1="27.0671" y1="5.64605" x2="2.92944" y2="28.9348" gradientUnits="userSpaceOnUse">
<stop offset="0.048" stop-color="#FFF44F"/>
<stop offset="0.111" stop-color="#FFE847"/>
<stop offset="0.225" stop-color="#FFC830"/>
<stop offset="0.368" stop-color="#FF980E"/>
<stop offset="0.401" stop-color="#FF8B16"/>
<stop offset="0.462" stop-color="#FF672A"/>
<stop offset="0.534" stop-color="#FF3647"/>
<stop offset="0.705" stop-color="#E31587"/>
</linearGradient>
<radialGradient id="paint1_radial_2520_34424" cx="0" cy="0" r="1" gradientUnits="userSpaceOnUse" gradientTransform="translate(26.132 4.37614) scale(30.3114)">
<stop offset="0.129" stop-color="#FFBD4F"/>
<stop offset="0.186" stop-color="#FFAC31"/>
<stop offset="0.247" stop-color="#FF9D17"/>
<stop offset="0.283" stop-color="#FF980E"/>
<stop offset="0.403" stop-color="#FF563B"/>
<stop offset="0.467" stop-color="#FF3750"/>
<stop offset="0.71" stop-color="#F5156C"/>
<stop offset="0.782" stop-color="#EB0878"/>
<stop offset="0.86" stop-color="#E50080"/>
</radialGradient>
<radialGradient id="paint2_radial_2520_34424" cx="0" cy="0" r="1" gradientUnits="userSpaceOnUse" gradientTransform="translate(14.8778 16.7558) scale(30.3114)">
<stop offset="0.3" stop-color="#960E18"/>
<stop offset="0.351" stop-color="#B11927" stop-opacity="0.74"/>
<stop offset="0.435" stop-color="#DB293D" stop-opacity="0.343"/>
<stop offset="0.497" stop-color="#F5334B" stop-opacity="0.094"/>
<stop offset="0.53" stop-color="#FF3750" stop-opacity="0"/>
</radialGradient>
<radialGradient id="paint3_radial_2520_34424" cx="0" cy="0" r="1" gradientUnits="userSpaceOnUse" gradientTransform="translate(18.6306 -2.37627) scale(21.957 21.957)">
<stop offset="0.132" stop-color="#FFF44F"/>
<stop offset="0.252" stop-color="#FFDC3E"/>
<stop offset="0.506" stop-color="#FF9D12"/>
<stop offset="0.526" stop-color="#FF980E"/>
</radialGradient>
<radialGradient id="paint4_radial_2520_34424" cx="0" cy="0" r="1" gradientUnits="userSpaceOnUse" gradientTransform="translate(11.5018 24.6335) scale(14.4317)">
<stop offset="0.353" stop-color="#3A8EE6"/>
<stop offset="0.472" stop-color="#5C79F0"/>
<stop offset="0.669" stop-color="#9059FF"/>
<stop offset="1" stop-color="#C139E6"/>
</radialGradient>
<radialGradient id="paint5_radial_2520_34424" cx="0" cy="0" r="1" gradientUnits="userSpaceOnUse" gradientTransform="translate(16.3441 14.1536) rotate(-13.5916) scale(7.6529 8.95964)">
<stop offset="0.206" stop-color="#9059FF" stop-opacity="0"/>
<stop offset="0.278" stop-color="#8C4FF3" stop-opacity="0.064"/>
<stop offset="0.747" stop-color="#7716A8" stop-opacity="0.45"/>
<stop offset="0.975" stop-color="#6E008B" stop-opacity="0.6"/>
</radialGradient>
<radialGradient id="paint6_radial_2520_34424" cx="0" cy="0" r="1" gradientUnits="userSpaceOnUse" gradientTransform="translate(14.5044 3.2511) scale(10.3839 10.3839)">
<stop stop-color="#FFE226"/>
<stop offset="0.121" stop-color="#FFDB27"/>
<stop offset="0.295" stop-color="#FFC82A"/>
<stop offset="0.502" stop-color="#FFA930"/>
<stop offset="0.732" stop-color="#FF7E37"/>
<stop offset="0.792" stop-color="#FF7139"/>
</radialGradient>
<radialGradient id="paint7_radial_2520_34424" cx="0" cy="0" r="1" gradientUnits="userSpaceOnUse" gradientTransform="translate(22.7563 -3.50182) scale(44.3041 44.3041)">
<stop offset="0.113" stop-color="#FFF44F"/>
<stop offset="0.456" stop-color="#FF980E"/>
<stop offset="0.622" stop-color="#FF5634"/>
<stop offset="0.716" stop-color="#FF3647"/>
<stop offset="0.904" stop-color="#E31587"/>
</radialGradient>
<radialGradient id="paint8_radial_2520_34424" cx="0" cy="0" r="1" gradientUnits="userSpaceOnUse" gradientTransform="translate(19.0751 -1.04538) rotate(83.976) scale(32.4667 21.3076)">
<stop stop-color="#FFF44F"/>
<stop offset="0.06" stop-color="#FFE847"/>
<stop offset="0.168" stop-color="#FFC830"/>
<stop offset="0.304" stop-color="#FF980E"/>
<stop offset="0.356" stop-color="#FF8B16"/>
<stop offset="0.455" stop-color="#FF672A"/>
<stop offset="0.57" stop-color="#FF3647"/>
<stop offset="0.737" stop-color="#E31587"/>
</radialGradient>
<radialGradient id="paint9_radial_2520_34424" cx="0" cy="0" r="1" gradientUnits="userSpaceOnUse" gradientTransform="translate(14.5028 7.00271) scale(27.6554 27.6554)">
<stop offset="0.137" stop-color="#FFF44F"/>
<stop offset="0.48" stop-color="#FF980E"/>
<stop offset="0.592" stop-color="#FF5634"/>
<stop offset="0.655" stop-color="#FF3647"/>
<stop offset="0.904" stop-color="#E31587"/>
</radialGradient>
<radialGradient id="paint10_radial_2520_34424" cx="0" cy="0" r="1" gradientUnits="userSpaceOnUse" gradientTransform="translate(21.6324 8.50301) scale(30.2701)">
<stop offset="0.094" stop-color="#FFF44F"/>
<stop offset="0.231" stop-color="#FFE141"/>
<stop offset="0.509" stop-color="#FFAF1E"/>
<stop offset="0.626" stop-color="#FF980E"/>
</radialGradient>
<linearGradient id="paint11_linear_2520_34424" x1="26.7738" y1="5.52226" x2="6.23855" y2="26.0612" gradientUnits="userSpaceOnUse">
<stop offset="0.167" stop-color="#FFF44F" stop-opacity="0.8"/>
<stop offset="0.266" stop-color="#FFF44F" stop-opacity="0.634"/>
<stop offset="0.489" stop-color="#FFF44F" stop-opacity="0.217"/>
<stop offset="0.6" stop-color="#FFF44F" stop-opacity="0"/>
</linearGradient>
<clipPath id="clip0_2520_34424">
<rect width="29.0434" height="30" fill="white" transform="translate(0.999054 1)"/>
</clipPath>
</defs>
</svg>
