<svg xmlns="http://www.w3.org/2000/svg" width="33" height="32" fill="none"><g clip-path="url(#a)"><path fill="#D663FF" d="M4.005 8.503 4.004 8.5l.001.002Z" opacity=".5"/><path fill="#9963FF" d="M4.005 8.503 4.004 8.5l.001.002Z" opacity=".5"/><path fill="#FBBF12" d="m17 16 6.495 3.75L17 31c8.284 0 15-6.716 15-15 0-2.733-.735-5.293-2.012-7.5H17V16Z"/><path fill="url(#b)" d="M17.001 1C11.45 1 6.606 4.018 4.012 8.502l6.494 11.248L17.001 16V8.5H29.99C27.395 4.018 22.552 1 17.001 1Z"/><path fill="url(#c)" d="M2 16c0 8.283 6.715 14.999 15 14.999l6.495-11.25L17 15.999l-6.495 3.75L4.01 8.5A14.924 14.924 0 0 0 2 15.999"/><path fill="#fff" d="M24.5 16a7.5 7.5 0 1 1-15 0 7.5 7.5 0 0 1 15 0Z"/><path fill="#1A73E8" d="M23.094 16a6.094 6.094 0 1 1-12.188 0 6.094 6.094 0 0 1 12.188 0Z"/></g><defs><linearGradient id="b" x1="8.512" x2="22.084" y1="10.375" y2="10.375" gradientUnits="userSpaceOnUse"><stop stop-color="#DB3328"/><stop offset="1" stop-color="#E53D30"/></linearGradient><linearGradient id="c" x1="7.716" x2="13.279" y1="11.172" y2="20.806" gradientUnits="userSpaceOnUse"><stop stop-color="#32A651"/><stop offset="1" stop-color="#279847"/></linearGradient><clipPath id="a"><path fill="#fff" d="M2 1h30v30H2z"/></clipPath></defs></svg>