<svg width="24" height="24" viewBox="0 0 24 24" fill="none" xmlns="http://www.w3.org/2000/svg">
<path opacity="0.5" d="M0 12C0 18.6274 5.37258 24 12 24C18.6274 24 24 18.6274 24 12C24 5.37258 18.6274 0 12 0C5.37258 0 0 5.37258 0 12ZM21 12C21 16.9706 16.9706 21 12 21C7.02944 21 3 16.9706 3 12C3 7.02944 7.02944 3 12 3C16.9706 3 21 7.02944 21 12Z" fill="white"/>
<path d="M12 1.5C12 0.671573 11.3258 -0.00966502 10.5039 0.0936208C8.50371 0.344954 6.59047 1.09744 4.94658 2.2918C3.30268 3.48615 1.99581 5.07322 1.13869 6.89781C0.786463 7.64762 1.22602 8.49932 2.01391 8.75532C2.80179 9.01132 3.63733 8.57185 4.02049 7.83736C4.66081 6.60993 5.57904 5.54049 6.70993 4.71885C7.84083 3.89721 9.14168 3.35439 10.5069 3.12471C11.3238 2.98727 12 2.32843 12 1.5Z" fill="#30B38C"/>
</svg>
