<svg xmlns="http://www.w3.org/2000/svg" width="18" height="22" fill="none"><path stroke="#22252D" stroke-linecap="round" stroke-linejoin="round" stroke-width="2" d="M9 16c1.5 0 6-3.5 6-8.333C15 4 12.5 1 9 1S3 4 3 7.667C3 12.5 7.5 16 9 16Z"/><path fill="#22252D" stroke="#22252D" stroke-linecap="round" stroke-linejoin="round" stroke-width="2" d="M9 7.5a.5.5 0 1 0 0-1 .5.5 0 0 0 0 1Z"/><path stroke="#22252D" stroke-linecap="round" stroke-linejoin="round" stroke-width="2" d="M2.5 17c-.935.413-1.5.936-1.5 1.46C1 19.898 4.6 21 9 21s8-1.101 8-2.54c0-.524-.564-1.047-1.5-1.46"/></svg>