<svg xmlns="http://www.w3.org/2000/svg" width="32" height="32" fill="none"><path fill="#F58C25" d="m29.613 26.156-1.863.455-.386.293-16.437-2.21H1.203L4.675 16.1l5.645.034 1.367 2.48 4.509 4.68-.584-2.914 4.024.716 7.728 5.808-6.108-5.808-1.003-2.775-3.528-8.592s-2.71-4.8-2.767-4.854c.077.01 6.295-.022 6.295-.022l1.136 4.616 2.503 8.852.683 2.396L27 23.523l-1.973-3.012 1.29-.542.617 2.73.056.824 2.623 2.633Z"/><path fill="#81491F" d="M10.319 16.132 4.674 16.1 3.33 14.68l.849-.563-1.521-.813 1.3-.347-1.785-1.104 1.069-.455.265-1.648L6.47 4.311 10.484.852l3.462 4.02 2.778 4.844-6.405 6.415v.001Z"/><path fill="#E48027" d="M1.203 24.694h9.734l2.657 3.488s-6.614 1.962-9.933 2.959a3916.51 3916.51 0 0 1-2.458-6.447Z"/><path fill="#81491F" d="m27.375 9.967.783.888-.573.673.793.563-.573.748.133 1.18-.982 1.149-5.568-5.7 8.875-7.227-2.888 7.726Z"/><path fill="#D9C6B7" d="m27.365 26.904.033 2.156-3.164 1.572-10.65-2.44c-.078.055 0 0 0 0 4.465-.421 13.781-1.288 13.781-1.288Z"/><path fill="#E48027" d="m30.262 2.241-8.874 7.228-1.136-4.616 10.01-2.612Z"/><path fill="#E57F24" d="m21.388 9.469 5.557 5.699-.232 2.958-2.821.195-2.504-8.852Z"/><path fill="#C7B7AB" d="m13.584 28.18 10.648 2.44 3.164-1.572 2.173-.184-1.655 2.124-4.486.4-9.845-3.207Z"/><path fill="#D76F21" d="m13.584 28.182-2.646-3.49 5.258-1.397-2.613 4.887Z"/><path fill="#2A2626" d="M29.57 28.864c-.728.065-1.444.13-2.172.185l-.033-2.157.386-.292 1.863-.444s.628.433 1.168.736c-.429.694-.827 1.333-1.212 1.972Z"/><path fill="#D66F21" d="m23.89 18.321 2.824-.195-.386 1.843-1.07-1.257-.23 1.799L27 23.523l-2.425-2.817-.683-2.385h-.001Z"/><path fill="#E47E25" d="m10.32 16.132 6.406-6.414 3.528 8.603-8.566.293-1.368-2.482Z"/><path fill="#E47F26" d="m13.584 28.182 2.612-4.887 11.169 3.609-13.781 1.278Z"/><path fill="#D66F21" d="m11.688 18.614 8.565-.293-.617 2.775-1.444-2.189-2.58 1.474-3.925-1.767Z"/><path fill="#E47F25" d="m19.635 21.096.617-2.774 1.003 2.774 6.11 5.808s-5.966-4.476-7.73-5.808Z"/><path fill="#32404E" d="m19.636 21.096-4.024-.716 2.58-1.473 1.444 2.189Z"/><path fill="#E57F25" d="m15.613 20.38.584 2.915-4.51-4.68 3.926 1.766Z"/><path fill="#38424D" d="m25.029 20.51.231-1.798 1.07 1.256-1.301.543Z"/><path fill="#E57F24" d="m26.328 19.969.386-1.843.407 1.962-.176 2.612-.617-2.731Z"/></svg>