<svg xmlns="http://www.w3.org/2000/svg" width="20" height="20" fill="none"><g clip-path="url(#a)"><path fill="#F58C25" d="m18.508 16.347-1.165.285-.24.183-10.274-1.382H.752l2.17-5.37 3.528.02.854 1.55 2.818 2.926-.365-1.821 2.516.447 4.83 3.63-3.818-3.63-.627-1.734-2.205-5.37s-1.694-3-1.729-3.034c.048.006 3.934-.014 3.934-.014l.71 2.885 1.564 5.533.428 1.497 1.515 1.754-1.233-1.883.806-.338.386 1.706.035.515 1.64 1.645Z"/><path fill="#81491F" d="m6.45 10.083-3.529-.02-.84-.888.53-.352-.95-.508.812-.217-1.116-.69.669-.285.165-1.03 1.853-3.399L6.553.533l2.163 2.512 1.737 3.028-4.004 4.009Z"/><path fill="#E48027" d="M.752 15.434h6.084l1.66 2.18s-4.133 1.226-6.208 1.849c-.53-1.389-1.034-2.71-1.536-4.03Z"/><path fill="#81491F" d="m17.11 6.23.489.554-.358.42.495.353-.358.467.083.738-.613.718-3.48-3.562 5.546-4.517-1.805 4.828Z"/><path fill="#D9C6B7" d="m17.103 16.815.02 1.348-1.977.982L8.49 17.62c-.049.035 0 0 0 0 2.79-.263 8.613-.805 8.613-.805Z"/><path fill="#E48027" d="m18.914 1.4-5.547 4.518-.71-2.885 6.257-1.632Z"/><path fill="#E57F24" d="M13.368 5.918 16.84 9.48l-.145 1.849-1.764.122-1.564-5.533Z"/><path fill="#C7B7AB" d="m8.49 17.613 6.655 1.525 1.978-.983 1.358-.115-1.034 1.328-2.804.25-6.153-2.005Z"/><path fill="#D76F21" d="m8.49 17.614-1.654-2.181 3.287-.874-1.633 3.055Z"/><path fill="#2A2626" d="M18.482 18.04c-.455.04-.903.081-1.358.116l-.021-1.348.241-.183 1.165-.278s.393.27.73.46c-.268.434-.517.834-.757 1.233Z"/><path fill="#D66F21" d="m14.932 11.451 1.764-.122-.241 1.152-.668-.786-.145 1.124 1.233 1.883-1.515-1.76-.428-1.491Z"/><path fill="#E47E25" d="m6.45 10.082 4.004-4.009 2.205 5.378-5.354.183-.855-1.552Z"/><path fill="#E47F26" d="m8.49 17.614 1.633-3.055 6.98 2.256-8.613.799Z"/><path fill="#D66F21" d="m7.305 11.634 5.353-.183-.386 1.734-.902-1.368-1.612.92-2.453-1.103Z"/><path fill="#E47F25" d="m12.272 13.185.386-1.734.627 1.734 3.818 3.63s-3.729-2.797-4.831-3.63Z"/><path fill="#32404E" d="m12.273 13.185-2.516-.447 1.613-.921.903 1.368Z"/><path fill="#E57F25" d="m9.758 12.738.365 1.821-2.818-2.925 2.453 1.104Z"/><path fill="#38424D" d="m15.643 12.82.145-1.125.668.785-.813.34Z"/><path fill="#E57F24" d="m16.455 12.48.241-1.151.255 1.226-.11 1.632-.386-1.706Z"/></g><defs><clipPath id="a"><path fill="#fff" d="M0 0h20v20H0z"/></clipPath></defs></svg>