<svg width="24" height="24" viewBox="0 0 24 24" fill="none" xmlns="http://www.w3.org/2000/svg">
<rect width="24" height="24" rx="12" fill="#9F73E6"/>
<path d="M11.25 11.25H6.75C6.33579 11.25 6 10.9142 6 10.5C6 10.0858 6.33579 9.75 6.75 9.75H11.25C11.7 9.75 12 9.45 12 9C12 8.55 11.7 8.25 11.25 8.25C11.0865 8.25 10.9427 8.28962 10.826 8.36166C10.4736 8.57921 10.1642 9 9.75 9C9.33579 9 8.98674 8.65552 9.11626 8.26208C9.41078 7.36741 10.2354 6.75 11.25 6.75C12.525 6.75 13.5 7.725 13.5 9C13.5 10.275 12.525 11.25 11.25 11.25Z" fill="white"/>
<path d="M15.75 17.25C14.7354 17.25 13.9108 16.6326 13.6163 15.7379C13.4867 15.3445 13.8358 15 14.25 15C14.6642 15 14.9736 15.4208 15.326 15.6383C15.4427 15.7104 15.5865 15.75 15.75 15.75C16.2 15.75 16.5 15.45 16.5 15C16.5 14.55 16.2 14.25 15.75 14.25H6.75C6.33579 14.25 6 13.9142 6 13.5C6 13.0858 6.33579 12.75 6.75 12.75H15.75C17.025 12.75 18 13.725 18 15C18 16.275 17.025 17.25 15.75 17.25Z" fill="white"/>
</svg>
