<svg xmlns="http://www.w3.org/2000/svg" width="32" height="32" fill="none"><rect width="30" height="30" x="1" y="1" fill="#4E74B7" rx="6.75"/><path fill="#fff" d="M5.27 3.358h22.584v24.813H5.27z"/><path fill="#4E74B7" fill-rule="evenodd" d="M7.627 1.885c-3.035.676-4.685 2.148-5.615 5.144l-.262.842v8.084c0 7.414.017 8.144.2 8.81.786 2.845 2.223 4.344 5.061 5.224l.843.261h8.09c7.419 0 8.15-.017 8.816-.2 2.848-.786 4.348-2.221 5.228-5.057l.262-.842v-8.084c0-7.414-.017-8.144-.2-8.81-.778-2.815-2.16-4.277-5.005-5.222l-.787-.261-7.977-.02c-6.32-.016-8.118.012-8.654.13Zm9.37 5.411c1 .66 1.477.89 2.547 1.226 1.08.34 2.334.528 3.53.528.699 0 .933.044 1.144.215.261.212.265.243.235 1.993-.063 3.71-.425 7.015-.942 8.6-.692 2.121-1.65 3.148-4.474 4.798-3.215 1.878-2.94 1.75-3.322 1.551-1.033-.538-4.36-2.557-4.915-2.98-2.038-1.56-2.806-3.964-3.113-9.742-.179-3.374-.163-3.835.144-4.142.234-.233.395-.265 1.658-.324 2.248-.104 4.097-.693 5.755-1.832.306-.21.658-.383.782-.383.123 0 .56.222.97.492Zm-1.515 1.785c-1.322.822-3.44 1.475-5.217 1.61l-1.02.076.06.966c.034.531.09 1.572.127 2.313.2 4.125.835 6.377 2.127 7.557.34.311 1.34.981 2.221 1.49.881.508 1.738 1.018 1.905 1.134l.303.211 1.983-1.154c1.225-.712 2.218-1.377 2.596-1.738 1.37-1.31 1.959-3.722 2.137-8.763l.073-2.049h-.504c-1.494 0-4.066-.727-5.495-1.554l-.755-.436-.541.337Z" clip-rule="evenodd"/></svg>