<svg xmlns="http://www.w3.org/2000/svg" width="48" height="48" fill="none"><path fill="#000" d="M12.23 34.07a3.366 3.366 0 0 0 3.365 3.366h1.68V45a2.52 2.52 0 1 0 5.04 0v-7.57h3.412v7.566a2.52 2.52 0 1 0 5.04 0V37.43H32.4a3.366 3.366 0 0 0 3.364-3.365v-16.81H12.23v16.815ZM7.185 15.73a3.366 3.366 0 0 0-3.365 3.365v11.611a3.366 3.366 0 0 0 6.73 0V19.095a3.366 3.366 0 0 0-3.365-3.365ZM30.422 4.224l1.766-2.942a.523.523 0 1 0-.897-.542l-1.848 3.067c-1.445-.528-3.212-.84-5.381-.84-2.199 0-3.994.321-5.453.864L16.751.735a.525.525 0 0 0-.898.542l1.787 2.971c-4.887 2.4-5.405 7.565-5.405 10.383v.686h23.539v-.705c-.005-2.828-.456-8.012-5.352-10.388ZM18.59 10.48c-.725 0-1.315-.59-1.315-1.315s.59-1.316 1.315-1.316 1.315.59 1.315 1.316a1.317 1.317 0 0 1-1.315 1.315Zm10.872 0c-.725 0-1.315-.59-1.315-1.315s.59-1.316 1.315-1.316 1.315.59 1.315 1.316c0 .73-.59 1.315-1.315 1.315Zm11.352 5.251a3.366 3.366 0 0 0-3.365 3.365v11.611a3.366 3.366 0 0 0 6.73 0V19.095a3.369 3.369 0 0 0-3.365-3.365Z"/></svg>