<svg xmlns="http://www.w3.org/2000/svg" width="48" height="48" fill="none"><g clip-path="url(#a)"><path fill="#22252D" d="M41.79 16.914c-.27.21-5.05 2.904-5.05 8.893 0 6.928 6.083 9.379 6.265 9.44-.028.15-.967 3.356-3.208 6.624-1.997 2.876-4.084 5.747-7.259 5.747-3.174 0-3.991-1.844-7.656-1.844-3.57 0-4.84 1.904-7.744 1.904s-4.93-2.66-7.26-5.928C7.18 37.912 5 31.95 5 26.293c0-9.075 5.9-13.888 11.708-13.888 3.086 0 5.658 2.026 7.595 2.026 1.844 0 4.72-2.148 8.23-2.148 1.331 0 6.111.122 9.258 4.631ZM30.868 8.441c1.452-1.722 2.479-4.113 2.479-6.503A4.48 4.48 0 0 0 33.257 1c-2.362.089-5.172 1.573-6.867 3.539-1.33 1.512-2.572 3.902-2.572 6.325 0 .364.06.728.089.845.149.028.392.06.634.06 2.12 0 4.785-1.418 6.326-3.328Z"/></g><defs><clipPath id="a"><path fill="#fff" d="M5 1h38v46.683H5z"/></clipPath></defs></svg>