<svg xmlns="http://www.w3.org/2000/svg" width="24" height="24" fill="none"><path fill="#1B1C1D" fill-rule="evenodd" d="M8.595.359c-1.706.502-2.51.917-3.949 2.039C2.527 4.049 1.228 5.91.45 8.406c-.462 1.485-.5 1.85-.413 4.05.107 2.71.575 4.357 1.584 5.585.518.63.653.687 1.634.687 1.806 0 1.857-.118 1.857-4.34 0-4.05-.04-3.958 1.723-3.958 1.686 0 1.71.053 1.824 4.017l.098 3.458.64-.27.64-.27v-4.357c0-4.093.025-4.38.395-4.752.295-.296.656-.395 1.44-.395 1.735 0 1.7-.088 1.76 4.494l.05 4.001.69-.345.69-.345.098-4.907c.092-4.566.126-4.926.481-5.186.51-.374 2.08-.357 2.628.027.427.3.438.403.438 4.15 0 2.112.056 3.841.126 3.841.069 0 .735-.5 1.48-1.112 1.481-1.214 2.867-2.834 3.05-3.562.213-.851-1.075-3.448-2.532-5.109-1.047-1.193-3.3-2.684-4.927-3.262-1.81-.642-5.448-.735-7.309-.187Zm14.112 12.1c-3.432 4.201-9.472 7.512-15.987 8.765-.993.19-1.805.398-1.805.46s.466.389 1.034.726c2.684 1.59 6.385 2.03 9.472 1.127 2.84-.831 6.017-3.531 7.283-6.192.78-1.638 1.382-4.23 1.286-5.535l-.062-.844-1.22 1.494Z" clip-rule="evenodd"/></svg>