<svg xmlns="http://www.w3.org/2000/svg" width="24" height="24" fill="none"><path stroke="#22252D" stroke-linecap="round" stroke-linejoin="round" stroke-width="2" d="M21 14.412C21 20 19 21 12 21s-9-1-9-7 2-7 9-7 9 1 9 7.412ZM11.5 7c0-2 0-2.778 2-2.778s2-.722 2-2.222"/><path fill="#22252D" stroke="#22252D" stroke-linecap="round" stroke-linejoin="round" stroke-width="2" d="M14 12.5a.5.5 0 1 0 0-1 .5.5 0 0 0 0 1ZM17 16.5a.5.5 0 1 0 0-1 .5.5 0 0 0 0 1Z"/><path stroke="#22252D" stroke-linecap="round" stroke-linejoin="round" stroke-width="2" d="M7 14h4M9 16v-4"/></svg>