<svg xmlns="http://www.w3.org/2000/svg" width="58" height="58" fill="none"><g clip-path="url(#a)"><path fill="#22252D" d="m28.752 13.325 1.174-2.03a2.642 2.642 0 0 1 3.61-.972 2.642 2.642 0 0 1 .972 3.611l-11.317 19.59h8.185c2.654 0 4.14 3.117 2.987 5.277H10.366a2.63 2.63 0 0 1-2.64-2.639 2.63 2.63 0 0 1 2.64-2.639h6.728l8.613-14.927-2.69-4.67a2.646 2.646 0 0 1 .972-3.61 2.646 2.646 0 0 1 3.61.972l1.153 2.037ZM18.572 41.52l-2.537 4.401a2.642 2.642 0 0 1-3.61.971 2.642 2.642 0 0 1-.972-3.61l1.885-3.262c2.132-.66 3.865-.153 5.235 1.5Zm21.852-7.982h6.866a2.63 2.63 0 0 1 2.64 2.639 2.63 2.63 0 0 1-2.64 2.639h-3.813l2.573 4.466a2.646 2.646 0 0 1-.971 3.61 2.646 2.646 0 0 1-3.61-.971c-4.336-7.518-7.591-13.144-9.752-16.892-2.211-3.814-.63-7.642.928-8.94 1.733 2.973 4.321 7.46 7.78 13.449Z"/></g><defs><clipPath id="a"><path fill="#fff" d="M0 0h58v58H0z"/></clipPath></defs></svg>