<svg xmlns="http://www.w3.org/2000/svg" width="20" height="20" fill="none"><g fill="#494E5B" clip-path="url(#a)"><path d="M6 2.667v6.666h8V2.667A.666.666 0 0 0 13.333 2H6.667A.667.667 0 0 0 6 2.667Zm4.78 4.666h-.913V5.568c0-.215.004-.41.014-.588a2.016 2.016 0 0 1-.21.214l-.378.312-.467-.574L9.968 4h.811v3.333ZM2 11.335v6a.667.667 0 0 0 .667.666h6.666v-7.333H2.667a.667.667 0 0 0-.667.667ZM6.856 16H4.439v-.592l.813-.823c.233-.243.385-.409.456-.497.059-.07.109-.148.149-.23a.485.485 0 0 0 .042-.2.259.259 0 0 0-.084-.204.344.344 0 0 0-.237-.076.645.645 0 0 0-.318.09c-.13.077-.251.166-.363.267l-.497-.58c.133-.125.278-.235.433-.33a1.55 1.55 0 0 1 .382-.151c.152-.037.31-.055.466-.053.199-.003.395.036.578.114.16.068.297.18.394.325a.84.84 0 0 1 .14.472c.004.245-.066.485-.2.69a2.27 2.27 0 0 1-.273.338 15.59 15.59 0 0 1-.723.675v.023h1.26L6.856 16ZM10.666 10.668v7.333h6.667a.666.666 0 0 0 .666-.666v-6a.667.667 0 0 0-.666-.667h-6.667Zm4.475 5.112a1.713 1.713 0 0 1-1.022.267 2.551 2.551 0 0 1-.994-.18v-.748a1.956 1.956 0 0 0 .864.219.859.859 0 0 0 .432-.083.286.286 0 0 0 .133-.261.292.292 0 0 0-.07-.21.456.456 0 0 0-.229-.112 1.798 1.798 0 0 0-.41-.038h-.205v-.677h.21c.457 0 .686-.117.686-.35a.215.215 0 0 0-.102-.196.504.504 0 0 0-.272-.067 1.247 1.247 0 0 0-.66.214l-.375-.6c.165-.116.348-.204.542-.26.207-.054.42-.08.634-.077a1.4 1.4 0 0 1 .812.205.651.651 0 0 1 .294.565.8.8 0 0 1-.19.533c-.146.16-.336.272-.546.322v.014c.556.07.834.333.834.788a.854.854 0 0 1-.366.732Z"/></g><defs><clipPath id="a"><path fill="#fff" d="M2 2h16v16H2z"/></clipPath></defs></svg>