<svg xmlns="http://www.w3.org/2000/svg" width="24" height="24" fill="none"><path stroke="#FCFCF9" stroke-linecap="round" stroke-linejoin="round" stroke-width="2" d="M12 17c1.5 0 6-3.5 6-8.333C18 5 15.5 2 12 2S6 5 6 8.667C6 13.5 10.5 17 12 17Z"/><path fill="#FCFCF9" stroke="#FCFCF9" stroke-linecap="round" stroke-linejoin="round" stroke-width="2" d="M12 8.5a.5.5 0 1 0 0-1 .5.5 0 0 0 0 1Z"/><path stroke="#FCFCF9" stroke-linecap="round" stroke-linejoin="round" stroke-width="2" d="M5.5 18c-.935.413-1.5.936-1.5 1.46C4 20.898 7.6 22 12 22s8-1.101 8-2.54c0-.524-.564-1.047-1.5-1.46"/></svg>