<svg xmlns="http://www.w3.org/2000/svg" width="24" height="24" fill="none"><path stroke="#494E5B" stroke-linecap="round" stroke-linejoin="round" stroke-width="2" d="M19.19 8.684v.534C19.19 14.235 15.46 20 8.644 20 6.621 20 4.598 19.466 3 18.292c.32 0 .64.107.852.107 1.704 0 3.302-.534 4.58-1.602-1.598 0-2.982-1.067-3.515-2.668.533 0 1.172 0 1.704-.214-1.704-.32-2.982-1.921-2.982-3.63.533.32 1.065.428 1.704.428-1.597-1.068-2.13-3.31-1.171-5.018 1.917 2.349 4.686 3.737 7.668 3.843-.32-1.28.107-2.668 1.065-3.522 1.491-1.388 3.835-1.388 5.22.213.851-.213 1.597-.427 2.343-.96-.32.853-.853 1.6-1.598 2.134.745-.106 1.49-.32 2.13-.64a10.41 10.41 0 0 1-1.81 1.921Z"/></svg>