<svg xmlns="http://www.w3.org/2000/svg" width="18" height="20" fill="none"><path fill="#5866F2" d="M7.187 8.39a1.114 1.114 0 0 0 0 2.22A1.063 1.063 0 0 0 8.21 9.5a1.059 1.059 0 0 0-1.023-1.11Zm3.65 0A1.114 1.114 0 1 0 11.86 9.5a1.064 1.064 0 0 0-1.02-1.11h-.002Z"/><path fill="#5866F2" d="M15.7 0H2.3A2.055 2.055 0 0 0 .25 2.063V15.58a2.055 2.055 0 0 0 2.05 2.062h11.34l-.53-1.85 1.28 1.188 1.21 1.12 2.15 1.9V2.062A2.055 2.055 0 0 0 15.7 0Zm-3.86 13.063s-.36-.43-.66-.813a3.156 3.156 0 0 0 1.813-1.188 5.72 5.72 0 0 1-1.15.59 6.577 6.577 0 0 1-1.45.43 7.005 7.005 0 0 1-2.59-.01 8.394 8.394 0 0 1-1.47-.43 5.997 5.997 0 0 1-1.145-.592 3.11 3.11 0 0 0 1.75 1.18c-.3.38-.67.83-.67.83a3.625 3.625 0 0 1-3.05-1.52c.031-2.027.523-4.02 1.437-5.83.806-.633 1.789-1 2.813-1.05l.1.12a6.746 6.746 0 0 0-2.63 1.31s.22-.12.59-.29A7.51 7.51 0 0 1 7.8 5.17a.985.985 0 0 1 .17-.02 8.151 8.151 0 0 1 5.03.94 6.654 6.654 0 0 0-2.49-1.27l.14-.16a4.945 4.945 0 0 1 2.813 1.05 13.392 13.392 0 0 1 1.437 5.83 3.656 3.656 0 0 1-3.06 1.523Z"/></svg>