<svg xmlns="http://www.w3.org/2000/svg" width="18" height="18" fill="none"><path fill="#22252D" d="M9 11.714a2.714 2.714 0 1 0 0-5.429 2.714 2.714 0 0 0 0 5.429Z"/><path fill="#22252D" d="M12.393.857H5.607a4.756 4.756 0 0 0-4.75 4.751v6.786a4.756 4.756 0 0 0 4.751 4.75h6.786a4.756 4.756 0 0 0 4.75-4.751V5.607a4.756 4.756 0 0 0-4.751-4.75ZM9 13.072A4.076 4.076 0 0 1 4.93 9 4.076 4.076 0 0 1 9 4.93 4.076 4.076 0 0 1 13.072 9 4.075 4.075 0 0 1 9 13.072Zm4.75-8.143a.679.679 0 1 1 0-1.358.679.679 0 0 1 0 1.358Z"/></svg>