<svg xmlns="http://www.w3.org/2000/svg" width="20" height="18" fill="none"><path fill="#FE4500" d="M20 8.875C20 7.5 18.875 6.5 17.625 6.5c-.625 0-1.125.25-1.5.5-1.5-.875-3.375-1.5-5.375-1.625l1-3.25 2.875.625c.125 1 1 1.875 2 1.875 1.125 0 2-.875 2-2s-.875-2-2-2c-.75 0-1.5.5-1.75 1.125L11.5.875c-.25 0-.5.125-.625.375l-1.25 4.125c-2.125 0-4.125.625-5.75 1.5-.375-.25-.875-.5-1.5-.5C1.125 6.375 0 7.5 0 8.875c0 .875.375 1.5 1 2v.625c0 1.625 1 3.25 2.75 4.375C5.375 17 7.625 17.625 10 17.625s4.625-.625 6.25-1.75C18 14.75 19 13.25 19 11.5V11c.5-.625 1-1.375 1-2.125ZM5.625 10.25c0-.75.625-1.375 1.375-1.375s1.375.625 1.375 1.375S7.75 11.625 7 11.625 5.625 11 5.625 10.25Zm7.625 4c-.75.75-1.75 1-3.25 1s-2.625-.375-3.25-1c-.25-.25-.25-.5 0-.75s.5-.25.75 0c.5.5 1.25.75 2.5.75s2-.25 2.5-.75c.25-.25.5-.25.75 0s.25.625 0 .75ZM13 11.625c-.75 0-1.375-.625-1.375-1.375S12.25 8.875 13 8.875s1.375.625 1.375 1.375-.625 1.375-1.375 1.375Z"/></svg>