<svg xmlns="http://www.w3.org/2000/svg" width="20" height="18" fill="none"><path fill="#3290EC" d="M19.96 1.106a.428.428 0 0 0-.291-.317 1.5 1.5 0 0 0-.787.056S1.359 7.143.358 7.841c-.216.15-.288.237-.324.34-.173.496.366.715.366.715l4.516 1.472a.499.499 0 0 0 .229-.014c1.027-.649 10.337-6.528 10.875-6.725.084-.026.147 0 .133.062-.22.754-8.26 7.898-8.304 7.942a.173.173 0 0 0-.062.148l-.42 4.407s-.176 1.375 1.196 0a37.612 37.612 0 0 1 2.375-2.173c1.553 1.072 3.224 2.258 3.945 2.875a1.255 1.255 0 0 0 .915.354c.687-.026.875-.778.875-.778s3.193-12.847 3.3-14.569c.01-.169.024-.277.026-.393a1.427 1.427 0 0 0-.04-.398Z"/></svg>