<svg xmlns="http://www.w3.org/2000/svg" width="20" height="18" fill="none"><path fill="#1EA1F1" d="M20 2.813c-.75.312-1.5.562-2.375.624.875-.5 1.5-1.312 1.813-2.25-.813.5-1.688.813-2.625 1C16.063 1.375 15 .875 13.874.875A4.121 4.121 0 0 0 9.75 5c0 .313.063.625.125.938-3.438-.188-6.438-1.813-8.5-4.313a3.934 3.934 0 0 0-.563 2.063c0 1.437.75 2.687 1.813 3.437a3.818 3.818 0 0 1-1.875-.5v.063c0 2 1.438 3.625 3.313 4-.375.062-.688.124-1.063.124-.25 0-.5 0-.75-.062.5 1.625 2.063 2.813 3.813 2.875-1.375 1.125-3.188 1.75-5.125 1.75-.313 0-.688 0-1-.063C1.813 16.439 4 17.125 6.313 17.125 13.875 17.125 18 10.875 18 5.437v-.5c.75-.625 1.438-1.312 2-2.125Z"/></svg>