<?xml version="1.0" encoding="utf-8"?><svg viewBox="0 0 58 58" xmlns="http://www.w3.org/2000/svg" xmlns:xlink="http://www.w3.org/1999/xlink"><style>:root>svg{display:none}:root>svg:target{display:block}</style><svg viewBox="0 0 24 24" id="accent-arrow-down" xmlns="http://www.w3.org/2000/svg"><path d="M17 10l-5 5-5-5"/></svg><svg viewBox="0 0 48 48" id="android" xmlns="http://www.w3.org/2000/svg"><path d="M12.23 34.07a3.366 3.366 0 003.365 3.366h1.68V45a2.52 2.52 0 105.04 0v-7.57h3.412v7.566a2.52 2.52 0 105.04 0V37.43H32.4a3.366 3.366 0 003.364-3.365v-16.81H12.23V34.07zM7.185 15.73a3.366 3.366 0 00-3.365 3.365v11.611a3.366 3.366 0 006.73 0V19.095a3.366 3.366 0 00-3.365-3.365zM30.422 4.224l1.766-2.942a.523.523 0 10-.897-.542l-1.848 3.067c-1.445-.528-3.212-.84-5.381-.84-2.199 0-3.994.321-5.453.864L16.751.735a.525.525 0 00-.898.542l1.787 2.971c-4.887 2.4-5.405 7.565-5.405 10.383v.686h23.539v-.705c-.005-2.828-.456-8.012-5.352-10.388zM18.59 10.48a1.317 1.317 0 010-2.631c.725 0 1.315.59 1.315 1.316a1.317 1.317 0 01-1.315 1.315zm10.872 0a1.317 1.317 0 010-2.631c.725 0 1.315.59 1.315 1.316 0 .73-.59 1.315-1.315 1.315zm11.352 5.251a3.366 3.366 0 00-3.365 3.365v11.611a3.366 3.366 0 006.73 0V19.095a3.369 3.369 0 00-3.365-3.365z"/></svg><svg viewBox="0 0 48 48" id="apple" xmlns="http://www.w3.org/2000/svg"><g clip-path="url(#aca)"><path d="M41.79 16.914c-.27.21-5.05 2.904-5.05 8.893 0 6.928 6.083 9.379 6.265 9.44-.028.15-.967 3.356-3.208 6.624-1.997 2.876-4.084 5.747-7.259 5.747-3.174 0-3.991-1.844-7.656-1.844-3.57 0-4.84 1.904-7.744 1.904s-4.93-2.66-7.26-5.928C7.18 37.912 5 31.95 5 26.293c0-9.075 5.9-13.888 11.708-13.888 3.086 0 5.658 2.026 7.595 2.026 1.844 0 4.72-2.148 8.23-2.148 1.331 0 6.111.122 9.258 4.631zM30.868 8.441c1.452-1.722 2.479-4.113 2.479-6.503a4.48 4.48 0 00-.09-.938c-2.362.089-5.172 1.573-6.867 3.539-1.33 1.512-2.572 3.902-2.572 6.325 0 .364.06.728.089.845.149.028.392.06.634.06 2.12 0 4.785-1.418 6.326-3.328z"/></g><defs><clipPath id="aca"><path d="M5 1h38v46.683H5z"/></clipPath></defs></svg><svg viewBox="0 0 24 24" id="calendar" xmlns="http://www.w3.org/2000/svg"><path d="M21 13c0 6.111-2 8-9 8s-9-1.889-9-8.5S5 4 12 4s9 1.889 9 9zm-6-7V3M9 6V3M8 9h8"/></svg><svg viewBox="0 0 32 32" id="camera" xmlns="http://www.w3.org/2000/svg"><circle cx="16" cy="18.666" r="4"/><path d="M16 6.667c9.333 0 12 1.185 12 10.666C28 26.815 25.333 28 16 28S4 26.667 4 17.333C4 8 6.667 6.667 16 6.667zm-1.334 3.999h2.667"/></svg><svg viewBox="0 0 24 24" id="chain" xmlns="http://www.w3.org/2000/svg"><path d="M12.65 10c2.785 3.498 3.342 5.126.319 8.163-2.818 2.83-4.378 1.984-6.397.188-2.02-1.796-1.914-3.386-.693-5.353"/><path d="M11.35 13c-2.785-3.498-3.342-5.126-.319-8.163 2.818-2.83 4.378-1.984 6.397-.188 2.02 1.796 1.914 3.386.693 5.353"/></svg><svg viewBox="0 0 20 20" id="check" xmlns="http://www.w3.org/2000/svg"><path d="M4.168 10.371l3.55 3.796 8.117-8.333"/></svg><svg viewBox="0 0 16 16" id="copy" xmlns="http://www.w3.org/2000/svg"><path d="M6.667 3.365c.042-.264.105-.496.192-.698.454-1.062 1.475-1.334 3.755-1.334 3.386 0 4.053 1.334 4.053 4.063 0 1.937-.149 3.404-1.333 3.778-.2.063-.43.114-.693.16"/><path d="M6 14.667c3.334 0 4.667-1 4.667-4.667S9.334 5.333 6.001 5.333c-3.334 0-4.667.778-4.667 4.667s1.333 4.667 4.667 4.667z"/><path d="M4.667 6s.403 1.597-.334 2.333C3.597 9.07 2 8.667 2 8.667"/></svg><svg viewBox="0 0 17 16" id="download" xmlns="http://www.w3.org/2000/svg"><path d="M13.833 9.333c0 3.667-.666 4-5.333 4s-5.333-.333-5.333-4"/><path d="M8.5 2.667V10M5.833 7.333L8.5 10l2.667-2.667"/></svg><svg viewBox="0 0 20 20" id="edit" xmlns="http://www.w3.org/2000/svg"><path d="M9.166 15.475c-1.231 1.257-5.399 1.37-5.698 1.021-.299-.348-.164-4.408 1.058-5.661 1.221-1.254 3.96-3.967 6.327-6.328a3.294 3.294 0 014.64 4.64c-2.367 2.361-5.096 5.072-6.327 6.328zM10.417 5.417l3.75 3.75m-2.5 7.5h4.167"/></svg><svg viewBox="0 0 24 24" id="etherscan" xmlns="http://www.w3.org/2000/svg"><path fill-rule="evenodd" d="M8.595.359c-1.706.502-2.51.917-3.949 2.039C2.527 4.049 1.228 5.91.45 8.406c-.462 1.485-.5 1.85-.413 4.05.107 2.71.575 4.357 1.584 5.585.518.63.653.687 1.634.687 1.806 0 1.857-.118 1.857-4.34 0-4.05-.04-3.958 1.723-3.958 1.686 0 1.71.053 1.824 4.017l.098 3.458.64-.27.64-.27v-4.357c0-4.093.025-4.38.395-4.752.295-.296.656-.395 1.44-.395 1.735 0 1.7-.088 1.76 4.494l.05 4.001.69-.345.69-.345.098-4.907c.092-4.566.126-4.926.481-5.186.51-.374 2.08-.357 2.628.027.427.3.438.403.438 4.15 0 2.112.056 3.841.126 3.841.069 0 .735-.5 1.48-1.112 1.481-1.214 2.867-2.834 3.05-3.562.213-.851-1.075-3.448-2.532-5.109-1.047-1.193-3.3-2.684-4.927-3.262-1.81-.642-5.448-.735-7.309-.187zm14.112 12.1c-3.432 4.201-9.472 7.512-15.987 8.765-.993.19-1.805.398-1.805.46s.466.389 1.034.726c2.684 1.59 6.385 2.03 9.472 1.127 2.84-.831 6.017-3.531 7.283-6.192.78-1.638 1.382-4.23 1.286-5.535l-.062-.844-1.22 1.494z" clip-rule="evenodd"/></svg><svg viewBox="0 0 17 16" id="external-link" xmlns="http://www.w3.org/2000/svg"><path d="M7.064 4c-3.009.153-3.897 1.295-3.897 4.657 0 3.637 1.039 4.676 4.677 4.676 3.346 0 4.493-.879 4.656-3.636M9.166 7.333l4.667-4.666m-4 0h4v4"/></svg><svg viewBox="0 0 24 24" id="filter" xmlns="http://www.w3.org/2000/svg"><path d="M3 6.587C3 5.035 6 4 12 4s9 1.035 9 2.587C21 9 14 12 14 14.347v3.621c0 1.552-4 3.104-4 1.035v-4.656C10 12 3 9 3 6.587z"/></svg><svg viewBox="0 0 24 24" id="game" xmlns="http://www.w3.org/2000/svg"><path d="M21 14.412C21 20 19 21 12 21s-9-1-9-7 2-7 9-7 9 1 9 7.412zM11.5 7c0-2 0-2.778 2-2.778s2-.722 2-2.222"/><path d="M14 12.5a.5.5 0 100-1 .5.5 0 000 1zm3 4a.5.5 0 100-1 .5.5 0 000 1zM7 14h4m-2 2v-4"/></svg><svg viewBox="0 0 18 16" id="heart" xmlns="http://www.w3.org/2000/svg"><path d="M14.88 9.736c-2.406 3.232-4.314 4.392-5.227 4.806a1.834 1.834 0 01-1.327 0c-.913-.414-2.82-1.574-5.227-4.806-.995-1.574-2.903-5.22-.249-7.623 2.49-1.657 4.563-.165 5.559.829a.903.903 0 001.244 0c.996-.994 3.07-2.569 5.559-.829 2.572 2.403.664 6.05-.332 7.623z"/></svg><svg viewBox="0 0 20 20" id="image" xmlns="http://www.w3.org/2000/svg"><path d="M17.5 10.441c0 5.392-1.667 7.059-7.5 7.059S2.5 15.833 2.5 10 4.167 2.5 10 2.5s7.5 1.667 7.5 7.941z"/><path d="M2.917 13.333S3.75 10 5.832 10s2.735 4.167 4.583 4.167c1.85 0 2.084-1.667 3.334-1.667s2.5 2.5 2.5 2.5"/><circle cx="12.5" cy="7.5" r="1.667"/></svg><svg viewBox="0 0 24 24" id="instagram-team" xmlns="http://www.w3.org/2000/svg"><path d="M12 15.5a3.5 3.5 0 100-7 3.5 3.5 0 000 7z"/><path d="M21 12.53C21 18.5 19 21 12 21s-9-2-9-9c0-6.5 2-9 9-9 7.5 0 9 2.5 9 9.53z"/><path d="M16.5 7.5a.5.5 0 100-1 .5.5 0 000 1z"/></svg><svg viewBox="0 0 58 58" id="ios" xmlns="http://www.w3.org/2000/svg"><g clip-path="url(#ara)"><path d="M28.752 13.325l1.174-2.03a2.642 2.642 0 013.61-.972 2.642 2.642 0 01.972 3.611l-11.317 19.59h8.185c2.654 0 4.14 3.117 2.987 5.277H10.366a2.63 2.63 0 01-2.64-2.639 2.63 2.63 0 012.64-2.639h6.728l8.613-14.927-2.69-4.67a2.646 2.646 0 01.972-3.61 2.646 2.646 0 013.61.972l1.153 2.037zM18.572 41.52l-2.537 4.401a2.642 2.642 0 01-3.61.971 2.642 2.642 0 01-.972-3.61l1.885-3.262c2.132-.66 3.865-.153 5.235 1.5zm21.852-7.982h6.866a2.63 2.63 0 012.64 2.639 2.63 2.63 0 01-2.64 2.639h-3.813l2.573 4.466a2.646 2.646 0 01-.971 3.61 2.646 2.646 0 01-3.61-.971c-4.336-7.518-7.591-13.144-9.752-16.892-2.211-3.814-.63-7.642.928-8.94 1.733 2.973 4.321 7.46 7.78 13.449z"/></g><defs><clipPath id="ara"><path d="M0 0h58v58H0z"/></clipPath></defs></svg><svg viewBox="0 0 20 20" id="level" xmlns="http://www.w3.org/2000/svg"><g clip-path="url(#asa)"><path d="M6 2.667v6.666h8V2.667A.666.666 0 0013.333 2H6.667A.667.667 0 006 2.667zm4.78 4.666h-.913V5.568c0-.215.004-.41.014-.588a2.016 2.016 0 01-.21.214l-.378.312-.467-.574L9.968 4h.811v3.333zM2 11.335v6a.667.667 0 00.667.666h6.666v-7.333H2.667a.667.667 0 00-.667.667zM6.856 16H4.439v-.592l.813-.823a9.76 9.76 0 00.456-.497c.059-.07.109-.148.149-.23a.485.485 0 00.042-.2.259.259 0 00-.084-.204.344.344 0 00-.237-.076.645.645 0 00-.318.09c-.13.077-.251.166-.363.267l-.497-.58c.133-.125.278-.235.433-.33a1.55 1.55 0 01.382-.151c.152-.037.31-.055.466-.053.199-.003.395.036.578.114.16.068.297.18.394.325a.84.84 0 01.14.472c.004.245-.066.485-.2.69a2.27 2.27 0 01-.273.338 15.59 15.59 0 01-.723.675v.023h1.26L6.856 16zm3.81-5.332v7.333h6.667a.666.666 0 00.666-.666v-6a.667.667 0 00-.666-.667h-6.667zm4.475 5.112a1.713 1.713 0 01-1.022.267 2.551 2.551 0 01-.994-.18v-.748a1.956 1.956 0 00.864.219.859.859 0 00.432-.083.286.286 0 00.133-.261.292.292 0 00-.07-.21.456.456 0 00-.229-.112 1.798 1.798 0 00-.41-.038h-.205v-.677h.21c.457 0 .686-.117.686-.35a.215.215 0 00-.102-.196.504.504 0 00-.272-.067 1.247 1.247 0 00-.66.214l-.375-.6a1.82 1.82 0 01.542-.26c.207-.054.42-.08.634-.077a1.4 1.4 0 01.812.205.651.651 0 01.294.565.8.8 0 01-.19.533c-.146.16-.336.272-.546.322v.014c.556.07.834.333.834.788a.854.854 0 01-.366.732z"/></g><defs><clipPath id="asa"><path d="M2 2h16v16H2z"/></clipPath></defs></svg><svg viewBox="0 0 24 24" id="location" xmlns="http://www.w3.org/2000/svg"><path d="M12 17c1.5 0 6-3.5 6-8.333C18 5 15.5 2 12 2S6 5 6 8.667C6 13.5 10.5 17 12 17z"/><path d="M12 8.5a.5.5 0 100-1 .5.5 0 000 1zM5.5 18c-.935.413-1.5.936-1.5 1.46C4 20.898 7.6 22 12 22s8-1.101 8-2.54c0-.524-.564-1.047-1.5-1.46"/></svg><svg viewBox="0 0 20 20" id="location-gray" xmlns="http://www.w3.org/2000/svg"><path fill-rule="evenodd" d="M2.5 9.167a7.5 7.5 0 0115 0c0 2.522-1.508 4.66-3.246 6.165l-2.868 2.486c-.795.69-1.977.69-2.772 0l-2.868-2.486C4.008 13.826 2.5 11.69 2.5 9.168zm7.5 1.666A1.667 1.667 0 1010 7.5a1.667 1.667 0 000 3.333z" clip-rule="evenodd"/></svg><svg viewBox="0 0 20 20" id="long-arrow" xmlns="http://www.w3.org/2000/svg"><path d="M11.51 4.792L16.874 10m0 0l-5.366 5.208M16.875 10H3.125"/></svg><svg viewBox="0 0 20 20" id="moon" xmlns="http://www.w3.org/2000/svg"><path d="M15.914 11.756a5.743 5.743 0 11-7.67-7.67 7.742 7.742 0 007.67 7.67z"/></svg><svg viewBox="0 0 18 20" id="notification" xmlns="http://www.w3.org/2000/svg"><path d="M7 18s.667 1 2 1 2-1 2-1m4-11c0 2 2 3 2 5 0 3-4.444 4-8 4s-8-1-8-4c0-2 2-2.759 2-5 0-3 2-6 6-6s6 3 6 6z"/></svg><svg viewBox="0 0 24 24" id="profile" xmlns="http://www.w3.org/2000/svg"><path d="M19 18.5c0 1.53-3 2.5-7 2.5s-7-.97-7-2.5c0-2.23 3.5-3.5 7-3.5s7 1.5 7 3.5zM12 12a4.5 4.5 0 100-9 4.5 4.5 0 000 9z"/></svg><svg viewBox="0 0 25 24" id="scroll-down" xmlns="http://www.w3.org/2000/svg"><path d="M12.5 20c-3.31 0-6-2.69-6-6v-4c0-3.31 2.69-6 6-6s6 2.69 6 6v4c0 3.31-2.69 6-6 6zm0-12.5v2"/></svg><svg viewBox="0 0 24 24" id="search" xmlns="http://www.w3.org/2000/svg"><path d="M11 19a8 8 0 100-16 8 8 0 000 16zm6-2l4 4"/></svg><svg viewBox="0 0 18 18" id="settings" xmlns="http://www.w3.org/2000/svg"><path d="M9 11.5a2.5 2.5 0 100-5 2.5 2.5 0 000 5z"/><path d="M2.333 5.23c-.738 1.27-.496 6.687 0 7.54.833 1.434 5 3.73 6.667 3.73 1.666 0 5.952-2.5 6.666-3.73.715-1.23.715-6.31 0-7.54C14.952 4 10.666 1.5 9 1.5c-1.667 0-5.928 2.46-6.667 3.73z"/></svg><svg viewBox="0 0 20 20" id="share" xmlns="http://www.w3.org/2000/svg"><path d="M10 2.5c-5.833 0-7.5 1.667-7.5 7.5s1.667 7.5 7.5 7.5c4.411 0 6.44-.953 7.167-3.75"/><path d="M6.667 11.667C6.667 10 7.5 7.5 11.25 7.5h5.413"/><path d="M14.166 4.167L17.5 7.501l-3.334 3.333"/></svg><svg viewBox="0 0 21 20" id="spinner" xmlns="http://www.w3.org/2000/svg"><path d="M2.167 10h2.5M16.333 10h2.5M10.5 18.333v-2.5m0-11.666v-2.5m5.917 14.25l-1.834-1.834M6.417 5.917L4.583 4.083m11.834 0l-1.834 1.834m-8.166 8.166l-1.834 1.834"/></svg><svg viewBox="0 0 20 20" id="sun" xmlns="http://www.w3.org/2000/svg"><circle cx="10" cy="10" r="3"/><path d="M10 3v1m-6 6H3m14 0h-1m-6 6v1m4.878-12.022l-.707.707m-8.486.001l-.707-.708m9.9 9.9l-.707-.707m-8.485 0l-.708.707"/></svg><svg viewBox="0 0 20 20" id="tooltip" xmlns="http://www.w3.org/2000/svg"><path d="M8 7.98C8 6.88 8.889 6 10 6s2 .88 2 1.98c0 .77-.444 1.32-1 1.76-1 .66-1 1.21-1 1.76"/><circle cx="10" cy="10" r="9"/><path d="M10 14.5a.5.5 0 100-1 .5.5 0 000 1z"/></svg><svg viewBox="0 0 24 24" id="twitter-team" xmlns="http://www.w3.org/2000/svg"><path d="M19.19 8.684v.534C19.19 14.235 15.46 20 8.644 20 6.621 20 4.598 19.466 3 18.292c.32 0 .64.107.852.107 1.704 0 3.302-.534 4.58-1.602-1.598 0-2.982-1.067-3.515-2.668.533 0 1.172 0 1.704-.214-1.704-.32-2.982-1.921-2.982-3.63.533.32 1.065.428 1.704.428-1.597-1.068-2.13-3.31-1.171-5.018 1.917 2.349 4.686 3.737 7.668 3.843-.32-1.28.107-2.668 1.065-3.522 1.491-1.388 3.835-1.388 5.22.213.851-.213 1.597-.427 2.343-.96-.32.853-.853 1.6-1.598 2.134a7.054 7.054 0 002.13-.64 10.41 10.41 0 01-1.81 1.921z"/></svg><svg viewBox="0 0 40 40" id="uploadfile" xmlns="http://www.w3.org/2000/svg"><path d="M33.333 20c0 10-1.481 15-13.333 15S6.666 30 6.666 20 8.333 5 20 5c11.666 0 13.333 5 13.333 15z"/><path d="M15 6.667s1.007 3.992-.834 5.833c-1.84 1.84-5.833.833-5.833.833m11.667 15v-10m5 3.334l-5-5-5 5"/></svg><svg viewBox="0 0 24 24" id="usd" xmlns="http://www.w3.org/2000/svg"><path d="M12 17v-1m2.083-6.91C13.667 8.437 12.833 8 11.917 8 10.583 8 9.5 8.945 9.5 10.182c0 0 0 1.818 2.5 1.818s2.5 1.818 2.5 1.818c0 1.237-1.083 2.182-2.417 2.182-.916 0-1.75-.436-2.166-1.09M12 8V7"/><path d="M12 3a9 9 0 100 18 9 9 0 000-18z"/></svg><svg viewBox="0 0 48 48" id="windows" xmlns="http://www.w3.org/2000/svg"><g clip-path="url(#bja)"><path d="M4 9.637l16.221-2.209.008 15.647-16.214.092L4 9.637zm16.214 15.24l.012 15.661L4.013 38.31l-.001-13.536 16.202.105zM22.18 7.14L43.688 4v18.876l-21.508.17V7.14zm21.513 17.886l-.005 18.79L22.18 40.78l-.03-15.79 21.543.035z"/></g><defs><clipPath id="bja"><path d="M4 4h40v40H4z"/></clipPath></defs></svg></svg>